<?xml version="1.0" encoding="utf-8"?>
<!-- Generator: Adobe Illustrator 22.0.1, SVG Export Plug-In . SVG Version: 6.00 Build 0)  -->
<svg version="1.1" id="Layer_1" xmlns="http://www.w3.org/2000/svg" xmlns:xlink="http://www.w3.org/1999/xlink" x="0px" y="0px"
	 viewBox="0 0 72 72" style="enable-background:new 0 0 72 72;" xml:space="preserve">
<style type="text/css">
	.st0{fill:#2375B1;}
	.st1{fill:#9DD3ED;}
</style>
<path class="st0" d="M24.6,68.9L24.6,68.9L3.5,50.3l0,0L0,47.2v4.4v12.7v5.9c0,1,0.9,1.8,2.1,1.8h6.7h14.4h5L24.6,68.9z"/>
<path class="st0" d="M33.6,67L33.6,67l32.8-30l0,0l5.5-5v7.1v20.5v9.5c0,1.6-1.4,2.9-3.2,2.9H58.3H35.9h-7.8L33.6,67z"/>
<path class="st1" d="M68.3,0H2.6C1.1,0,0,1,0,2.3v7.4l0,0v18.9l5.2-5.8l23,20.7L71.1,4.8C73.1,3,71.4,0,68.3,0z"/>
<g>
</g>
<g>
</g>
<g>
</g>
<g>
</g>
<g>
</g>
<g>
</g>
</svg>
